<svg xmlns="http://www.w3.org/2000/svg" viewBox="297 236.3 1190 368.6"><path d="M421.3 239.1h2.1l5.1 124.3h-1.7c-3.8-13.9-13.1-123.4-51-123.4-29.1 0-38.8 134-38.8 179 0 58.1 7.2 180.3 39.6 180.3 15.6 0 24-27 24-62.3V423.6h-17.3V419h70.3v4.6H436v177.8h-2.1c-2.5-7.6-2.9-22.7-14.3-22.7-12.6 0-26.1 26.1-43.8 26.1C317.7 604.8 297 497 297 419c0-64.4 23.6-182.8 78.8-182.8 9.3 0 15.6 2.5 23.2 13.1 5.5 8 15.6 9.7 19.8-.4 1.2-3 2-6.8 2.5-9.8zM1212.4 594.2V245.5h-15.6v-4.3h66.5v4.3h-16l.4 348.7h15.6v4.3h-66.5v-4.3h15.6V245.5M1019.4 594.2h41.7c19.4-.8 43.4-19 43.4-69.9v-29.9h3.8v104h-126l85.5-353h-40c-25.3 0-39.2 38.3-39.2 73.3 0 8.8-.4 26.5-.4 26.5h-3.4v-104h122.6l-88 353zM546.4 241.2h74.1c35.4 0 58.6 39.6 58.6 86.8s-19.4 91.4-49.3 91.4c-3.8 0-3.8 2.5 0 2.5 18.1 0 31.6 20.6 34.1 26.1 11 21.9 3.4 123.4 14.3 133.5 9.3 8.4 16-4.6 17.3-6.7l1.3.8c0 .8-8 27-28.2 27-16.4 0-24.9-20.2-27.4-33.3-3.8-20.6-2.5-84.7-4.6-97.3-1.7-11.4-6.7-44.7-22.7-47.6-7.2-1.3-9.3-1.3-16.8-1.3v171h15.6v4.2h-68.2v-4.2H562V245.5h-15.2v-4.3h-.4zm50.5 4.3v173.1c7.2 0 19.4.8 31.6-15.2 11.4-14.7 16-52.7 16-80.5 0-29.9-15.2-77.5-34.1-77.5l-13.5.1zM773 594.2l67-358 61.9 358.1h14.3v4.2h-64.4v-4.2h14.3l-17.7-99.8H797l-18.1 99.8H797v4.2h-39.2v-4.2H773v-.1zm24.9-104.4h49.7l-24-139.9-25.7 139.9zM1343.8 594.2l67-358.1 61.9 358.1h14.3v4.2h-64.4v-4.2h14.3l-17.7-99.8h-51.4l-18.1 99.8h18.1v4.2h-39.2v-4.2h15.2zm24.8-104.4h49.7l-24-139.9-25.7 139.9z"/></svg>